<svg width="42" height="36" viewBox="0 0 42 36" fill="none" xmlns="http://www.w3.org/2000/svg">
<path fill-rule="evenodd" clip-rule="evenodd" d="M10.6 10H10V10.6V24.6V25.2H10.6H26.6H27.2V24.6V19.2211L30.7672 21.5992L31.7 22.2211V21.1V12.6V11.5803L30.8086 12.0755L27.2 14.0803V10.6V10H26.6H10.6ZM11.2 24V11.2H26V15.1V16.1197L26.8914 15.6245L30.5 13.6197V19.9789L26.9328 17.6008L26 16.9789V18.1V24H11.2ZM17.4623 18.7377V22.1H19.7377V18.7377H23.1V16.4623H19.7377V13.1H17.4623V16.4623H14.1V18.7377H17.4623Z" fill="white"/>
</svg>
