<svg width="99" height="23" viewBox="0 0 99 23" fill="none" xmlns="http://www.w3.org/2000/svg">
<g clip-path="url(#clip0_474_1178)">
<path d="M30.9162 3.84584C30.7349 3.17567 30.3811 2.56471 29.8902 2.07381C29.3993 1.58291 28.7883 1.22921 28.1181 1.04793C25.6646 0.378906 15.7909 0.378906 15.7909 0.378906C15.7909 0.378906 5.91678 0.399209 3.46363 1.06823C2.79348 1.24954 2.18254 1.60326 1.69164 2.09416C1.20074 2.58505 0.847021 3.196 0.665715 3.86614C-0.0763982 8.22543 -0.36431 14.8675 0.686018 19.0522C0.867324 19.7223 1.22104 20.3333 1.71194 20.8242C2.20284 21.3151 2.81379 21.6688 3.48393 21.8501C5.93727 22.5191 15.8112 22.5191 15.8112 22.5191C15.8112 22.5191 25.6851 22.5191 28.1384 21.8501C28.8086 21.6688 29.4195 21.3151 29.9104 20.8242C30.4013 20.3333 30.755 19.7223 30.9363 19.0522C31.7188 14.6869 31.9602 8.04889 30.916 3.84603" fill="#FF0000"/>
<path d="M12.6484 16.1933L20.8395 11.449L12.6484 6.70459V16.1933Z" fill="white"/>
<path d="M94.9849 6.80614C96.0594 6.80614 96.8703 7.00878 97.438 7.39395C98.0057 7.77925 98.4113 8.38756 98.6546 9.21888C98.8979 10.0501 98.9992 11.1853 98.9992 12.6452V15.0175H93.7886V15.7473L93.8698 17.7545C93.9305 18.2006 94.032 18.5251 94.194 18.7277C94.3565 18.9305 94.6198 19.0319 94.9646 19.0319C95.431 19.0319 95.7554 18.8495 95.9175 18.4847C96.1 18.1196 96.181 17.5113 96.2013 16.68L98.8979 16.8423C98.9182 16.9639 98.9182 17.1261 98.9182 17.3288C98.9182 18.6061 98.5734 19.5592 97.8638 20.1876C97.1542 20.816 96.181 21.1405 94.9037 21.1405C93.3628 21.1405 92.2883 20.654 91.68 19.7011C91.0719 18.748 90.7474 17.2475 90.7474 15.2405V12.7871C90.8163 9.3405 91.4224 6.8162 94.9849 6.80614ZM57.4964 7.06969V17.2274C57.4964 17.8357 57.5571 18.2818 57.699 18.5454C57.9869 19.109 58.7331 18.965 59.1386 18.6873C59.3726 18.529 59.5613 18.3124 59.686 18.0589V7.0695H62.788V20.9173H60.355L60.0914 19.2142H60.0307C59.3617 20.4915 58.368 21.1403 57.0503 21.1403C55.0219 21.1352 54.5256 19.6738 54.4075 18.1896L54.3997 18.085C54.3851 17.8602 54.3765 17.635 54.374 17.4098V7.06969H57.4964ZM73.4934 7.06969V17.2274C73.4934 17.8357 73.5541 18.2818 73.696 18.5454C73.9841 19.109 74.7301 18.965 75.1356 18.6873C75.3696 18.529 75.5583 18.3124 75.683 18.0589V7.0695H78.785V20.9173H76.352L76.0885 19.2142H76.0277C75.3587 20.4915 74.365 21.1403 73.0473 21.1403C71.019 21.1352 70.5226 19.6738 70.4045 18.1896L70.3967 18.085C70.3821 17.8602 70.3735 17.635 70.371 17.4098V7.06969H73.4934ZM48.4941 6.80614C49.5079 6.80614 50.3392 7.00878 50.9475 7.43456C51.5556 7.86034 52.022 8.50925 52.3058 9.40122C52.5897 10.2934 52.7316 11.4895 52.7316 12.9697V14.9767C52.7316 16.4569 52.5897 17.6329 52.3058 18.5249C52.022 19.4172 51.5759 20.066 50.9475 20.4917C50.3191 20.8972 49.4673 21.1201 48.4131 21.1201C47.3181 21.1405 46.4666 20.9175 45.8382 20.512C45.2097 20.0863 44.7635 19.4373 44.5001 18.5454C44.2364 17.6532 44.1147 16.4772 44.1147 14.9972V12.9898C44.1147 11.5096 44.2567 10.2932 44.5608 9.40102C44.865 8.48875 45.3312 7.83984 45.9801 7.43456C46.6288 7.02889 47.4601 6.80595 48.4941 6.80595M83.6511 1.25073V8.54966H83.6714C83.9553 8.02256 84.3202 7.59679 84.8271 7.27233C85.3006 6.95417 85.8583 6.78476 86.4287 6.78584C87.179 6.78584 87.7467 6.98848 88.1724 7.37365C88.5982 7.77932 88.9024 8.40774 89.0847 9.27959C89.2616 10.1242 89.3622 11.2923 89.3684 12.7653L89.3686 12.9089V15.0986C89.3686 17.1462 89.105 18.667 88.6183 19.6402C88.1117 20.6134 87.3412 21.1 86.2868 21.1C85.699 21.1 85.1717 20.9581 84.6852 20.6946C84.255 20.4437 83.8983 20.0841 83.6507 19.652L83.6105 19.5793H83.5498L83.2253 20.8972H80.6504V1.25093L83.6511 1.25073ZM71.2427 1.96036V4.47423H68.1609V20.9173H65.1198V4.47442H62.0177V1.96055L71.2427 1.96036ZM37.8091 1.96036L37.811 1.9681C37.8406 2.09977 38.2505 3.92219 38.7015 6.04547L38.737 6.21369L38.7908 6.46795L38.8267 6.63869L38.8447 6.72435L38.8807 6.89605L38.8987 6.9821L38.9344 7.15438L38.9867 7.40633C39.2912 8.87663 39.5818 10.3512 39.7556 11.4085H39.8369C40.0033 10.4601 40.2452 9.24634 40.5032 8.0071L40.5708 7.68341C40.6048 7.52125 40.6389 7.35934 40.6733 7.19769L40.7263 6.94691C41.0766 5.30467 41.4373 3.66469 41.8085 2.02707L41.8143 2.00097L41.8236 1.96036H44.9257L41.3369 14.754V20.8972H38.2755V14.7741H38.2552L34.707 1.96017L37.8091 1.96036ZM48.4332 8.95514C48.0075 8.95514 47.7236 9.17827 47.5413 9.64466C47.3589 10.111 47.2777 10.8205 47.2777 11.8141V16.1326C47.2777 17.1464 47.3587 17.8965 47.521 18.3427C47.6833 18.7887 47.9873 19.0118 48.4332 19.0118C48.859 19.0118 49.1632 18.7887 49.3457 18.3427C49.5282 17.8965 49.6092 17.1464 49.6092 16.1326V11.814C49.6092 10.8205 49.528 10.0905 49.3457 9.64446C49.1632 9.17827 48.859 8.95514 48.4332 8.95514ZM84.1985 9.3608C83.9514 9.58897 83.7756 9.87031 83.671 10.222L83.6511 10.2934V18.16C83.9025 18.5858 84.2594 18.8696 84.8878 18.8899C85.2122 18.8899 85.4758 18.7683 85.6787 18.5251C85.8813 18.2818 86.0232 17.8763 86.1043 17.3085C86.1823 16.7636 86.2228 16.0131 86.2259 15.057V13.1319C86.2259 12.0371 86.1853 11.2058 86.1246 10.6178C86.0434 10.0298 85.9422 9.60405 85.7597 9.3608C85.4068 8.85382 84.6446 8.86 84.1985 9.3608ZM94.9242 8.89442C94.5793 8.91466 94.336 9.01604 94.194 9.19858C94.032 9.40122 93.9305 9.70537 93.8698 10.1515C93.81 10.5884 93.7895 12.116 93.7886 12.1771V13.1725H96.0594V12.2946V12.3115C96.058 12.6183 96.0516 12.1334 96.0377 11.538L96.0358 11.458C96.023 10.9348 96.0045 10.3514 95.9784 10.1515C95.9175 9.68507 95.8159 9.36061 95.6539 9.17827C95.4917 8.99574 95.2484 8.89442 94.924 8.89442" fill="white"/>
</g>
<defs>
<clipPath id="clip0_474_1178">
<rect width="99" height="22.4297" fill="white" transform="translate(0 0.378906)"/>
</clipPath>
</defs>
</svg>
